<?xml version="1.0" standalone="no"?><!DOCTYPE svg PUBLIC "-//W3C//DTD SVG 1.1//EN" "http://www.w3.org/Graphics/SVG/1.1/DTD/svg11.dtd"><svg class="icon" width="200px" height="200.00px" viewBox="0 0 1024 1024" version="1.1" xmlns="http://www.w3.org/2000/svg"><path d="M934.409578 19.79546a10.855575 10.855575 0 0 1 10.855575 10.791719V988.240459a10.855575 10.855575 0 0 1-10.855575 10.791719H97.827887a10.791719 10.791719 0 0 1-10.791718-10.791719V30.651035c0-6.002494 4.853081-10.791719 10.791718-10.791718h836.581691V19.79546z m0-19.731604H97.827887a30.523323 30.523323 0 0 0-30.587179 30.587179V988.240459a30.459466 30.459466 0 0 0 30.587179 30.523322h836.581691a30.39561 30.39561 0 0 0 30.587179-30.523322V30.651035a30.523323 30.523323 0 0 0-30.587179-30.587179" fill="#040000" /><path d="M888.624595 90.739835v837.411824H143.612871V90.739835h745.011724z m10.855575-10.791718H132.821152v858.99526h766.659018V79.948117" fill="#040000" /><path d="M774.066351 305.68022H251.913195V165.579446h522.153156v140.100774z m-12.771265-127.329509H271.006236v114.558244h490.352706V178.350711h-0.063856z" fill="#040000" /><path d="M658.039411 240.929908h25.54253v8.492891h-25.54253zM658.039411 227.839361h25.54253v8.492891h-25.54253zM374.198054 225.540534h34.801697v9.131454h-34.801697zM374.198054 240.035919h34.801697v9.259167h-34.801697zM658.039411 254.020454h25.54253v8.939885h-25.54253z" fill="#040000" /><path d="M277.391868 184.672487v101.850836h477.581442V184.672487H277.391868zM353.508606 271.772512l-6.513345-1.91569a351.209778 351.209778 0 0 0 7.279621-29.054627l6.130207 2.234971c-2.362684 9.514592-4.661512 19.093041-6.896483 28.735346z m4.278373-37.547518a233.714143 233.714143 0 0 0-12.515839-10.664006l3.703667-4.34223c3.767523 2.681966 8.109753 6.002494 13.154402 10.153155a204.914941 204.914941 0 0 1-4.34223 4.853081z m2.490397-18.773759a243.931155 243.931155 0 0 0-12.260414-11.366426l3.767523-4.086805c4.406086 3.448241 8.68446 7.088052 12.835121 10.855575-1.468695 1.532552-2.937391 3.001247-4.34223 4.597656zM371.516089 200.891993c2.298828 2.107259 6.130207 6.130207 11.430282 12.132701l-5.04465 3.959092a166.026441 166.026441 0 0 0-10.664006-12.579695L371.516089 200.891993z m43.294587 62.068346c0 5.810925-2.745822 8.748316-8.301322 8.748317-4.34223 0-8.620604-0.063856-12.898977-0.255426a92.527812 92.527812 0 0 0-1.149414-6.06635c4.916937 0.255425 8.812173 0.446994 11.685707 0.446994 3.192816 0 4.789224-1.340983 4.789224-4.086805v-7.151908h-34.801696v17.36892h-5.874782v-52.042904h20.434024v-21.072586h6.130207v21.072586h19.987029v43.039162z m-9.578449-45.529558l-4.406086-3.83138c3.895236-3.959092 7.407333-8.173609 10.664006-12.707408l5.363931 4.150661a213.216263 213.216263 0 0 1-11.621851 12.388127z m43.103019 41.825891a43.039162 43.039162 0 0 0-1.660265-6.257919 17.879771 17.879771 0 0 0 6.896483 0.574707c3.512098-0.574707 4.661512-4.086805 3.384385-10.60015a31.417311 31.417311 0 0 0-6.513345-13.154403c2.171115-7.024196 4.150661-14.112247 6.002495-21.200299h-10.344725v63.537042H440.480918V203.38239h22.030431v5.108505l-6.194063 20.370168a31.928162 31.928162 0 0 1 6.449489 14.176103c1.468695 9.514592-0.893989 14.878523-7.088052 16.091794a24.903966 24.903966 0 0 1-7.343477 0.127712z m62.770765-43.039161h-30.778747l-0.127713 11.62185h24.584684a1182.619107 1182.619107 0 0 1-1.021701 29.948616c-0.191569 8.237466-4.214517 12.388127-11.941132 12.388127-3.703667 0-7.407333 0-11.238713-0.127713l-1.149414-6.641058c4.533799 0.446994 8.173609 0.766276 11.111 0.766276 4.725368 0 7.215765-2.490397 7.407334-7.407333 0.319282-5.108506 0.638563-12.962834 0.830132-23.435271h-18.965328c-0.830132 18.262908-7.47119 31.417311-19.923173 39.463208l-3.959092-5.172362a35.184834 35.184834 0 0 0 15.006236-18.262909c2.362684-6.130207 3.512098-17.177351 3.384385-33.141431h-11.174856v-5.555501h22.413569a149.487653 149.487653 0 0 0-6.194063-9.003741l4.789224-3.192816c2.618109 3.256672 5.04465 6.577201 7.279621 9.961586l-3.512098 2.234971h23.243702v5.555501z m34.099277 55.938139h-5.363931v-37.8668c-2.554253 7.407333-5.491644 13.537541-9.131454 18.326765a53.894737 53.894737 0 0 0-2.426541-6.513345c5.236219-7.662759 9.067598-16.347219 11.430282-26.05338h-10.40858v-5.172362h10.472437v-15.133949h5.427787v15.133949h10.344724v5.236218H545.205288v9.195311l2.618109-2.171115c3.12896 3.256672 6.130207 6.641058 9.131455 10.089299l-4.150661 3.767523c-2.490397-3.192816-5.108506-6.25792-7.598903-9.323023v40.484909z m56.193565-3.639811h-49.233226v-5.172362h21.838863v-14.495385h-16.858069v-5.108506h16.858069v-11.685707h-13.984535v-5.108506h33.907708v5.108506h-13.984535v11.749563h17.624345v5.108506h-17.624345v14.495385H601.398853v5.108506z m-2.61811-39.080069a65.899726 65.899726 0 0 1-21.775006-23.11599c-4.469943 8.173609-11.749563 16.027937-22.094288 23.818409a37.611374 37.611374 0 0 0-3.767523-4.661512c10.727862-7.215765 18.454477-15.900224 23.179846-25.925667h6.704913l-1.085557 1.787977a54.277875 54.277875 0 0 0 22.605138 22.860564 64.750312 64.750312 0 0 0-3.767523 5.236219z m35.44026-30.267898h6.513345c-1.277126 2.554253-2.618109 5.04465-4.086805 7.47119h21.838863v4.597655h-16.347219l6.25792 6.768771-4.086805 3.192816c-2.107259-2.618109-4.086805-5.172362-6.385633-7.535046l3.384386-2.490397h-7.854328c-2.873535 4.022948-6.385632 7.598902-10.089299 10.855575-1.085557-1.340983-2.362684-2.681966-3.575954-3.959092a53.894737 53.894737 0 0 0 14.431529-18.901472z m12.32427 53.511599a138.75979 138.75979 0 0 0-8.109753-8.109753v27.841357h-5.236218v-28.926914c-2.618109 6.896483-6.385632 13.345972-10.855575 19.284609-0.70242-2.043402-1.724121-4.086805-2.554253-6.06635 6.130207-7.598902 10.217012-15.006236 12.579695-22.41357h-10.727862v-4.916937h11.621851v-10.217012h5.172362v10.217012h9.961587v4.916937H638.43552v8.556747l2.490397-2.554253c3.512098 3.065104 6.704914 5.874782 9.323023 8.492891l-3.703667 3.895236z m42.400599 19.540035h-5.363931v-4.34223h-25.54253v4.278374h-5.363931v-49.233225h36.270392v49.297081z m4.022948-61.046645h-18.199052c2.362684 2.362684 4.597655 4.789224 6.832627 7.407334l-4.214518 3.384385a111.620853 111.620853 0 0 0-6.704914-7.854328l3.767523-2.937391h-7.471189a63.345473 63.345473 0 0 1-6.832627 9.706161c-1.468695-1.340983-3.001247-2.490397-4.469943-3.63981a60.663507 60.663507 0 0 0 11.111001-18.135196h6.385632c-1.149414 2.554253-2.362684 4.980793-3.63981 7.47119h23.562983v4.597655z" fill="#040000" /><path d="M108.938888 504.975804a21.455725 21.455725 0 1 1 0.063856-42.847592 21.455725 21.455725 0 0 1-0.063856 42.847592z m0-37.483661a15.964081 15.964081 0 1 0 0 32.055874 16.091793 16.091793 0 0 0 16.091793-16.027937 16.15565 16.15565 0 0 0-16.091793-16.027937z"  /><path d="M90.292841 481.732103h13.984535v3.575954h-13.984535v-3.575954z"  /><path d="M103.638813 483.52008c0 2.937391 2.42654 5.300075 5.300075 5.300075a5.300075 5.300075 0 0 0 5.300074-5.300075c-0.063856-2.809678-2.42654-5.04465-5.300074-5.04465s-5.108506 2.234971-5.300075 5.04465z"  /><path d="M473.430781 742.904465h23.371414v2.234971h-23.371414zM498.079322 714.488401a17.688202 17.688202 0 0 0 3.128959-4.789224h-6.577201a20.434023 20.434023 0 0 0 3.448242 4.789224zM469.854827 717.936643h4.85308v1.72412H469.854827z" fill="#040000" /><path d="M467.683712 715.126964h10.983287v4.980794h0.893989c1.085557 0 1.660264-0.446994 1.787977-1.40484l0.127712-5.172362h-12.771264l-1.021701 1.596408zM616.532801 710.976303a4.469943 4.469943 0 0 0-3.767523 1.851834 7.279621 7.279621 0 0 0-1.468695 4.661511c0 1.91569 0.510851 3.575954 1.468695 4.597656 1.021701 1.149414 2.234971 1.660264 4.022948 1.660264a4.661512 4.661512 0 0 0 3.639811-1.532552 6.002494 6.002494 0 0 0 1.468695-4.022948 8.68446 8.68446 0 0 0-1.468695-5.04465 4.406086 4.406086 0 0 0-3.895236-2.171115z" fill="#040000" /><path d="M345.27114 681.85782v94.762784h347.69768v-94.762784H345.27114z m96.933899 27.713644l6.06635 3.959092c-3.831379 5.619356-7.343477 10.408581-10.664006 14.367673a63.984036 63.984036 0 0 0-5.810925-4.469943c3.831379-4.406086 7.279621-9.067598 10.408581-13.856822z m-33.716139-0.191569c2.554253 3.320529 5.747069 7.98204 9.323023 13.984535l-6.066351 4.086805a183.267648 183.267648 0 0 0-9.19531-14.495386l5.938638-3.575954z m35.567972 40.037915a34.354702 34.354702 0 0 1-18.454477-19.987029 35.120978 35.120978 0 0 1-18.646047 20.306311 247.507109 247.507109 0 0 0-5.491644-6.066351c9.961586-4.725368 15.900224-10.217012 17.815915-16.538788 1.91569-6.385632 2.745822-14.686954 2.618109-25.287104h7.343477a298.783737 298.783737 0 0 1-0.574707 15.325518 30.267897 30.267897 0 0 0 20.944874 25.478673c-1.91569 2.298828-3.831379 4.469943-5.5555 6.76877z m58.939386 0.766276h-6.194063v-1.277127h-23.371414v1.277127h-6.321776v-9.961587h35.887253v9.961587z m0-12.068845h-35.887253v-2.490397h35.887253v2.490397z m0-4.406087h-35.887253v-2.554253h35.887253v2.554253z m6.002495-4.469942h-46.998254v-4.086805h21.902719l-0.510851-1.532552a8.748316 8.748316 0 0 1-2.873534 0.446995h-3.959092l-0.255426-1.468696H469.854827v0.957845h-3.959092v-6.130207c-0.70242 0.830132-1.277126 1.340983-1.91569 2.171115a39.143926 39.143926 0 0 0-2.681966-3.703667 22.477426 22.477426 0 0 0 4.980794-7.215764h1.532551v-1.149414h-6.002494v-3.575954h6.002494v-2.171115h5.300075v2.171115h4.214517v-2.298828h5.300075v2.298828h6.385633v3.575954h-6.321776v1.468695h-5.300075v-1.468695h-4.214518v1.340983h-1.915689l-0.510851 1.085557h15.836368l-0.255425 9.067598a5.5555 5.5555 0 0 1-1.021701 3.320529l3.448241-0.319282 0.70242 3.192816h19.540035v4.022949z m-2.745822-4.916937a37.292093 37.292093 0 0 1-7.982041-3.575954 30.012472 30.012472 0 0 1-7.27962 3.767523 36.461961 36.461961 0 0 0-3.12896-4.406086 30.012472 30.012472 0 0 0 6.577201-2.809679 18.326765 18.326765 0 0 1-2.490397-3.63981 34.099277 34.099277 0 0 1-2.043402 2.745822 55.108007 55.108007 0 0 0-3.12896-4.34223 27.777501 27.777501 0 0 0 5.427788-10.344725l5.427787 0.255426a37.036667 37.036667 0 0 1-1.21327 3.192816h12.451983v4.597655h-2.873534a20.689449 20.689449 0 0 1-4.022949 7.47119c2.043402 1.149414 4.469943 1.91569 7.215765 2.618109a52.873036 52.873036 0 0 0-2.937391 4.469943z m35.057121 18.901472h-7.918184v-29.565478a20.434023 20.434023 0 0 1-8.620603 3.575954v-6.76877c4.406086-1.277126 8.301322-3.192816 11.557994-5.619357h4.980793v38.377651z m40.676478 0h-7.854327v-29.565478a20.753305 20.753305 0 0 1-8.620604 3.575954v-6.76877a36.398104 36.398104 0 0 0 11.494138-5.619357h4.980793v38.377651z m43.613869-5.108506a13.856822 13.856822 0 0 1-12.068845 5.747069 20.881018 20.881018 0 0 1-7.726615-1.340983v-6.641058a11.877276 11.877276 0 0 0 7.088052 1.979546c6.130207 0 9.131454-3.959092 9.259167-11.877276h-0.127713c-1.596408 2.554253-4.214517 3.831379-7.598902 3.83138-3.12896 0-5.747069-1.149414-7.726616-3.320529s-3.12896-4.916937-3.128959-8.301322c0-3.895236 1.340983-7.088052 3.767523-9.514592a12.579696 12.579696 0 0 1 9.450735-3.767523c4.022948 0 7.343477 1.596408 9.578449 4.661511a22.030432 22.030432 0 0 1 3.512098 12.962834 25.095535 25.095535 0 0 1-4.278374 15.580943z" fill="#040000" /></svg>