<?xml version="1.0" standalone="no"?><!DOCTYPE svg PUBLIC "-//W3C//DTD SVG 1.1//EN"
        "http://www.w3.org/Graphics/SVG/1.1/DTD/svg11.dtd">
<svg class="icon" width="200px" height="200.00px" viewBox="0 0 1024 1024" version="1.1"
     xmlns="http://www.w3.org/2000/svg">
    <path d="M398.009318 329.199651l256.626775 0 0 38.373982-256.626775 0 0-38.373982Z" fill="#ffcc03"/>
    <path d="M398.009318 433.529811l256.626775 0 0 38.373982-256.626775 0 0-38.373982Z" fill="#ffcc03"/>
    <path d="M398.009318 537.858948l256.626775 0 0 38.97364-256.626775 0 0-38.97364Z" fill="#ffcc03"/>
    <path d="M870.452393 163.958212c-37.626969-39.58967-85.887113-69.78232-143.308917-89.330538-56.434314-19.299555-123.518175-28.951379-199.493543-28.951379-155.438165 0-267.566942 38.107923-342.81474 116.299773-71.780837 74.976622-106.922195 183.847192-106.922195 333.311295 0 149.208277 35.145451 258.093173 107.669208 333.320505 75.239612 78.183663 187.115632 116.291586 342.067726 116.291586 298.252825 0 449.480085-151.188374 449.480085-449.367521C977.130018 347.56288 942.235276 239.427044 870.452393 163.958212zM784.747429 790.287097c-67.955718-25.182542-140.708696-49.968042-218.251769-74.349335l34.776038-65.955154c81.545224 21.98778 155.294902 43.573401 221.250056 64.75584L784.747429 790.287097zM823.121412 648.783293 444.777481 648.783293l37.174668 67.754127c-43.972491 16.788361-112.925932 41.769312-206.859301 74.948993-13.19144-27.984355-26.584472-52.764738-40.172955-74.349335 76.344782-22.381753 145.499815-45.166689 207.458959-68.353784L231.921605 648.783293l0-71.951729 82.143858 0L314.065464 329.199651l-70.152756 0L243.912707 257.248945l70.152756 0 0-58.160631 83.942831 0 0 58.160631 256.626775 0 0-58.160631 83.942831 0 0 58.160631 71.352071 0 0 71.951729-71.352071 0 0 247.631914 84.542488 0L823.120388 648.783293z"
          fill="#ffcc03"/>
</svg>