<?xml version="1.0" standalone="no"?><!DOCTYPE svg PUBLIC "-//W3C//DTD SVG 1.1//EN"
        "http://www.w3.org/Graphics/SVG/1.1/DTD/svg11.dtd">
<svg class="icon" width="200px" height="197.68px" viewBox="0 0 1036 1024" version="1.1"
     xmlns="http://www.w3.org/2000/svg">
    <path d="M64 0h908.8a64 64 0 0 1 64 64 64 64 0 0 1-64 64H64A64 64 0 0 1 0 64 64 64 0 0 1 64 0z" fill="#fcc002"/>
    <path d="M147.2 0a44.8 44.8 0 0 1 44.8 44.8v934.4a44.8 44.8 0 0 1-44.8 44.8 44.8 44.8 0 0 1-44.8-44.8V44.8a44.8 44.8 0 0 1 44.8-44.8zM889.6 0a44.8 44.8 0 0 1 44.8 44.8v934.4a44.8 44.8 0 0 1-44.8 44.8 44.8 44.8 0 0 1-44.8-44.8V44.8a44.8 44.8 0 0 1 44.8-44.8z"
          fill="#fcc002"/>
    <path d="M115.2 204.8h806.4a51.2 51.2 0 0 1 51.2 51.2 51.2 51.2 0 0 1-51.2 51.2H115.2a51.2 51.2 0 0 1-51.2-51.2 51.2 51.2 0 0 1 51.2-51.2zM115.2 384h806.4a51.2 51.2 0 0 1 51.2 51.2 51.2 51.2 0 0 1-51.2 51.2H115.2a51.2 51.2 0 0 1-51.2-51.2 51.2 51.2 0 0 1 51.2-51.2zM115.2 563.2h806.4a51.2 51.2 0 0 1 51.2 51.2 51.2 51.2 0 0 1-51.2 51.2H115.2a51.2 51.2 0 0 1-51.2-51.2 51.2 51.2 0 0 1 51.2-51.2zM115.2 742.4h806.4a51.2 51.2 0 0 1 51.2 51.2 51.2 51.2 0 0 1-51.2 51.2H115.2a51.2 51.2 0 0 1-51.2-51.2 51.2 51.2 0 0 1 51.2-51.2zM115.2 921.6h806.4a51.2 51.2 0 0 1 51.2 51.2 51.2 51.2 0 0 1-51.2 51.2H115.2a51.2 51.2 0 0 1-51.2-51.2 51.2 51.2 0 0 1 51.2-51.2z"
          fill="#fcc002"/>
</svg>