<?xml version="1.0" standalone="no"?><!DOCTYPE svg PUBLIC "-//W3C//DTD SVG 1.1//EN"
        "http://www.w3.org/Graphics/SVG/1.1/DTD/svg11.dtd">
<svg class="icon" width="200px" height="200.00px" viewBox="0 0 1024 1024" version="1.1"
     xmlns="http://www.w3.org/2000/svg">
    <path d="M863.231675 183.296229c-8.191856 0.511765-16.895476 0.511765-24.575567 0.511765-211.455356 0-304.63997-91.648114-305.664704-92.671645l-20.992006-22.01674-21.503771 22.01674c-1.02353 1.02353-92.15988 92.671645-305.663501 92.671645-8.191856 0-16.383711 0-24.575566-0.511765l-29.695627-1.023531v415.744795c0 109.055356 38.400452 267.776018 370.687783 389.117351l10.240121 3.584765 10.24012-3.584765c332.287332-121.342537 370.687783-280.061995 370.687784-389.117351V182.272698c0.510561 0-29.185066 1.02353-29.185066 1.023531z"/>
    <path d="M629.258651 344.06636c31.822162 0 66.286236-0.652651 103.422326-1.989261v39.778003c-37.13609-1.305302-71.600165-1.989261-103.422326-1.989262h-103.423531v67.622846h153.145432c-1.335406 23.86632-1.988057 48.416599-1.988057 73.589426v97.456951c0 22.561018-7.64517 37.788742-22.872893 45.744583-15.257828 7.954637-36.794111 13.26977-64.638954 15.910479-2.673221-15.910479-8.639801-31.822162-17.89974-47.733845 27.843639 0 45.402604-0.652651 52.705793-1.988057 7.271882-1.305302 10.939734-7.955841 10.939734-19.890206V483.289371h-109.39011v157.123955c0 33.157568 0.652651 61.655062 1.988057 85.521382h-45.744583c1.305302-23.86632 1.989261-52.363814 1.989261-85.521382V483.289371h-111.378168v194.912696h-43.755321c1.304098-21.194304 1.988057-46.397234 1.988057-75.578687v-73.588222c0-30.486755-0.683959-57.678947-1.988057-81.546472H484.070264v-67.622846h-103.42353c-34.494178 0-68.959456 0.683959-103.422326 1.989262v-39.778003a2668.064338 2668.064338 0 0 0 103.422326 1.989261h248.611917z m-93.477224-21.878263c-14.606381 6.650539-26.539541 13.26977-35.79948 19.889002-11.934364-21.194304-27.192192-41.767264-45.744583-61.656266a454.341523 454.341523 0 0 1 31.822162-21.877059c15.910479 15.911683 32.473609 37.137295 49.721901 63.644323z"
          fill="#ffffff"/>
</svg>