<?xml version="1.0" standalone="no"?><!DOCTYPE svg PUBLIC "-//W3C//DTD SVG 1.1//EN"
        "http://www.w3.org/Graphics/SVG/1.1/DTD/svg11.dtd">
<svg class="icon" width="200px" height="200.00px" viewBox="0 0 1024 1024" version="1.1"
     xmlns="http://www.w3.org/2000/svg">
    <path d="M512 220.16c-161.179 0-291.84 130.66-291.84 291.84s130.661 291.84 291.84 291.84 291.84-130.66 291.84-291.84S673.179 220.16 512 220.16L512 220.16zM686.976 686.977c-22.74 22.74-49.208 40.588-78.67 53.049-30.478 12.891-62.88 19.428-96.306 19.428s-65.828-6.536-96.307-19.428c-29.462-12.461-55.929-30.309-78.669-53.049s-40.589-49.208-53.05-78.67c-12.891-30.478-19.428-62.881-19.428-96.306s6.537-65.828 19.428-96.306c12.461-29.462 30.31-55.93 53.05-78.67 22.74-22.74 49.208-40.588 78.669-53.049 30.479-12.891 62.881-19.428 96.307-19.428s65.828 6.536 96.306 19.428c29.462 12.461 55.93 30.309 78.67 53.049 22.74 22.74 40.589 49.208 53.05 78.67 12.891 30.478 19.428 62.881 19.428 96.306s-6.537 65.828-19.428 96.306C727.565 637.769 709.716 664.236 686.976 686.977L686.976 686.977zM600.416 317.83c-44.488-20.231-95.001-24.583-142.239-12.249-42.589 11.121-81.607 35.853-109.866 69.643-29.638 35.437-47.178 80.364-49.388 126.506-2.258 47.114 11.37 94.245 38.373 132.712l35.721-22.639-16.833-28.719-17.206 10.085c-13.111-28.045-19.381-59.212-17.888-90.378 1.183-24.691 7.27-48.991 17.635-71.326l18.003 9.978 16.138-29.117-17.558-9.731c3.147-4.517 6.487-8.904 10.026-13.136 21.284-25.448 49.378-45.161 80.457-56.719l14.618 141.97c-8.514 11.131-13.567 25.022-13.567 40.083 0 36.482 29.562 66.044 66.023 66.044 36.458 0 66.02-29.561 66.02-66.044 0-31.432-21.985-57.718-51.45-64.36l-78.673-118.768c4.941-1.745 9.952-3.29 15.021-4.613 10.554-2.756 21.29-4.581 32.081-5.49l0.199 21.402 33.287-0.31-0.195-20.987c21.338 1.92 42.365 7.398 62.073 16.36 30.747 13.984 57.706 36.492 77.236 64.22l-18.119 10.621 16.834 28.719 17.965-10.53c15.352 32.945 21.107 70.119 16.229 106.443-2.641 19.672-8.467 38.946-17.094 56.961l-17.644-9.78-16.138 29.115 35.742 21.129c19.764-28.092 32.604-60.76 37.13-94.471 6.327-47.115-3.372-95.532-27.311-136.329-22.092-37.644-56.059-68.293-95.646-86.297L600.416 317.83zM512.866 481.54c18.358 0 33.278 14.874 33.278 33.256 0 18.382-14.92 33.302-33.278 33.302-18.359 0-33.281-14.92-33.281-33.302S494.507 481.54 512.866 481.54z"/>
</svg>