<?xml version="1.0" standalone="no"?><!DOCTYPE svg PUBLIC "-//W3C//DTD SVG 1.1//EN"
        "http://www.w3.org/Graphics/SVG/1.1/DTD/svg11.dtd">
<svg class="icon" width="200px" height="200.00px" viewBox="0 0 1024 1024" version="1.1"
     xmlns="http://www.w3.org/2000/svg">
    <path d="M828.992 893.632H582.464a22.08 22.08 0 0 1 0-44.096h246.592c24.576 0 43.52-12.544 43.52-23.36v-640.96c0-10.88-18.944-23.424-43.52-23.424H577.728c-12.16 0-22.08-9.92-22.08-22.016s9.92-22.016 22.08-22.016h251.264c49.088 0 87.488 29.632 87.488 67.456v640.96c0 37.824-38.4 67.456-87.488 67.456z"/>
    <path d="M517.632 979.456a20.48 20.48 0 0 1-5.888-0.832l-329.28-91.648c-65.152-17.408-74.944-55.36-74.944-76.416V202.24c0-25.472 13.12-59.52 75.072-76.544L512.448 45.12a24.32 24.32 0 0 1 5.184-0.576c44.608 0 80.832 34.624 80.832 77.248v780.352c0.064 42.688-36.224 77.312-80.832 77.312z m2.432-890.88L193.536 168.32c-41.984 11.52-41.984 28.416-41.984 33.92v608.32c0 14.912 14.272 26.432 42.496 33.984L520.32 935.36c19.072-1.216 34.176-15.68 34.176-33.28V121.792c0.064-17.6-15.296-32.064-34.432-33.216z"/>
    <path d="M456.512 511.552a27.584 17.856 90 1 0 35.712 0 27.584 17.856 90 1 0-35.712 0z"/>
</svg>