<?xml version="1.0" standalone="no"?><!DOCTYPE svg PUBLIC "-//W3C//DTD SVG 1.1//EN"
        "http://www.w3.org/Graphics/SVG/1.1/DTD/svg11.dtd">
<svg class="icon" width="200px" height="200.00px" viewBox="0 0 1024 1024" version="1.1"
     xmlns="http://www.w3.org/2000/svg">
    <path d="M528.416 450.144l113.184-113.184a32 32 0 1 1 45.088 45.088l-112.992 112.992a64 64 0 1 1-45.28-44.896zM800 704h-64a32 32 0 0 1 0-64h64a32 32 0 0 1 0 64z m-192 0H224a32 32 0 0 1 0-64h384a32 32 0 0 1 0 64z m192 128H384a32 32 0 0 1 0-64h416a32 32 0 0 1 0 64zM288 832H224a32 32 0 0 1 0-64h64a32 32 0 0 1 0 64z m66.752-522.048A254.4 254.4 0 0 1 480 257.984V288a32 32 0 0 0 64 0v-30.016A256.096 256.096 0 0 1 766.016 480H736a32 32 0 0 0 0 64h64a31.904 31.904 0 0 0 32-32c0-176.736-143.264-320-320-320S192 335.264 192 512a31.904 31.904 0 0 0 32 32h64a32 32 0 0 0 0-64h-30.016a254.72 254.72 0 0 1 51.712-124.864l10.304 10.304a31.968 31.968 0 0 0 22.72 9.28 32.064 32.064 0 0 0 22.4-54.4l-10.368-10.368z"/>
</svg>