<?xml version="1.0" standalone="no"?><!DOCTYPE svg PUBLIC "-//W3C//DTD SVG 1.1//EN"
        "http://www.w3.org/Graphics/SVG/1.1/DTD/svg11.dtd">
<svg class="icon" width="200px" height="200.00px" viewBox="0 0 1024 1024" version="1.1"
     xmlns="http://www.w3.org/2000/svg">
    <path d="M757.4912 825.5872 266.5216 825.5872C228.9664 825.5872 198.4128 795.0336 198.4128 757.4784L198.4128 266.5344C198.4128 228.9792 228.9664 198.4256 266.5216 198.4256L757.4912 198.4256C795.0464 198.4256 825.6 228.9792 825.6 266.5344L825.6 757.4784C825.6 795.0336 795.0464 825.5872 757.4912 825.5872ZM782.8992 266.5344C782.8992 252.5312 771.5072 241.1392 757.4912 241.1392L266.5216 241.1392C252.5056 241.1392 241.1008 252.5312 241.1008 266.5344L241.1008 757.4784C241.1008 771.4816 252.5056 782.8736 266.5216 782.8736L757.4912 782.8736C771.5072 782.8736 782.8992 771.4816 782.8992 757.4784L782.8992 266.5344ZM383.36 647.2832 355.6352 604.5696 478.7072 509.1584 500.4032 299.4816 565.1328 299.4816 558.9888 539.52 383.36 647.2832Z"/>
</svg>